<svg id="图层_1" data-name="图层 1" xmlns="http://www.w3.org/2000/svg" viewBox="0 0 874 963"><defs><style>.cls-1{fill:#3c8dd8}</style></defs><path class="cls-1" d="M800.31 519.104c-.17 104.737-43.408 199.703-118.637 266.333a349.115 349.115 0 01-153.738 79.605 343.042 343.042 0 01-43.939 7.255 358.331 358.331 0 01-45.013 1.705 346.917 346.917 0 01-124.976-26.24A352.67 352.67 0 01108.179 615.1a347.82 347.82 0 01-10.166-53.121 356.096 356.096 0 01.006-79.9 341.46 341.46 0 0112.64-61.866c2.484-8.103.5-6.24 8.698-9.167a196.852 196.852 0 0145.211-10.265 202.236 202.236 0 01167.523 60.69c4.22 4.362 8.335 8.827 12.462 13.279 21.33 23.01 47.313 37.656 78.195 43.47a140.027 140.027 0 00130.8-45.236c6.769-7.67 13.469-15.394 20.935-22.408 28.554-26.828 61.971-44.176 100.482-51.67a201.55 201.55 0 0149.62-3.388 199.498 199.498 0 0152.11 9.886c.606.201 1.208.424 1.828.573a4.57 4.57 0 013.472 3.542c1.98 6.74 4.166 13.422 6.025 20.195a341.411 341.411 0 019.875 51.225c1.582 13.677 2.158 27.396 2.415 38.166z"/><path class="cls-1" d="M183.476 289.544c1.98-2.292 3.889-4.65 5.95-6.867a351.72 351.72 0 01200.418-108.273 354.72 354.72 0 0175.966-4.344 345.845 345.845 0 01104.271 21.352q81.8 30.393 140.136 95.28c1.036 1.147 2.435 2.086 2.748 3.781a4.107 4.107 0 01-2.845-.187 124.627 124.627 0 00-42.835-3.177q-46.007 4.445-79.28 36.783a109.974 109.974 0 00-10.028 10.961 320.23 320.23 0 01-24.299 27.14c-22.443 22.77-49.51 36.91-81.127 42.103a147.162 147.162 0 01-142.399-57.482c-2.959-3.973-5.873-7.99-9.017-11.814-19.7-23.964-44.749-39.268-75.101-45.61a128.906 128.906 0 00-56.123.877c-1.395.324-2.816.539-4.224.804-1.229.377-2.328.538-2.211-1.327z"/><path class="cls-1" d="M183.476 289.544c.435.946 1.357 1.08 2.212 1.327-.655.804-1.643.795-2.528 1.02-.552.14-1.114.55-1.697.041a3.411 3.411 0 012.013-2.388z"/></svg>
