<?xml version="1.0" standalone="no"?><!DOCTYPE svg PUBLIC "-//W3C//DTD SVG 1.1//EN" "http://www.w3.org/Graphics/SVG/1.1/DTD/svg11.dtd"><svg t="1689319882667" class="icon" viewBox="0 0 1024 1024" version="1.1" xmlns="http://www.w3.org/2000/svg" p-id="8133" xmlns:xlink="http://www.w3.org/1999/xlink" width="200" height="200"><path d="M870.144 346.944h-55.68v-18.816c0-166.784-135.68-302.464-302.464-302.464s-302.464 135.68-302.464 302.464v18.816h-55.68c-42.24 0-76.8 34.56-76.8 76.8V947.2c0 42.24 34.56 76.8 76.8 76.8h716.288c42.24 0 76.8-34.56 76.8-76.8V423.744c0-42.24-34.56-76.8-76.8-76.8z m-278.592 287.36h-43.392v109.568c30.208 11.52 51.712 40.64 51.712 74.88 0 44.224-35.904 80.128-80.192 80.128s-80.192-35.904-80.192-80.128c0-34.24 21.504-63.36 51.712-74.88V503.36c0-15.68 12.8-28.48 28.48-28.48s28.48 12.8 28.48 28.48v73.984h43.392c15.68 0 28.48 12.8 28.48 28.48s-12.8 28.48-28.48 28.48z m158.912-287.36H273.536v-18.816c0-131.456 106.944-238.464 238.464-238.464s238.464 107.008 238.464 238.464v18.816z" fill="#bfbfbf" p-id="8134"></path></svg>