<?xml version="1.0" standalone="no"?><!DOCTYPE svg PUBLIC "-//W3C//DTD SVG 1.1//EN" "http://www.w3.org/Graphics/SVG/1.1/DTD/svg11.dtd"><svg t="1689473610414" class="icon" viewBox="0 0 1024 1024" version="1.1" xmlns="http://www.w3.org/2000/svg" p-id="4798" xmlns:xlink="http://www.w3.org/1999/xlink" width="200" height="200"><path d="M320 554.666667a234.666667 234.666667 0 1 1 0-469.333334 234.666667 234.666667 0 0 1 0 469.333334z m0-42.666667a192 192 0 1 0 0-384 192 192 0 0 0 0 384zM704 938.666667a234.666667 234.666667 0 1 1 0-469.333334 234.666667 234.666667 0 0 1 0 469.333334z m0-42.666667a192 192 0 1 0 0-384 192 192 0 0 0 0 384z" fill="#bfbfbf" p-id="4799"></path><path d="M682.666667 170.666667h42.666666v341.333333h-42.666666z" fill="#bfbfbf" p-id="4800"></path><path d="M597.333333 256h213.333334v42.666667h-213.333334zM298.666667 512h42.666666v341.333333H298.666667z" fill="#bfbfbf" p-id="4801"></path><path d="M318.933333 823.893333l75.434667-75.392 30.165333 30.165334-105.6 105.6L213.333333 778.666667l30.165334-30.165334z" fill="#bfbfbf" p-id="4802"></path></svg>