<?xml version="1.0" standalone="no"?><!DOCTYPE svg PUBLIC "-//W3C//DTD SVG 1.1//EN" "http://www.w3.org/Graphics/SVG/1.1/DTD/svg11.dtd"><svg t="1689473651777" class="icon" viewBox="0 0 1024 1024" version="1.1" xmlns="http://www.w3.org/2000/svg" p-id="6149" xmlns:xlink="http://www.w3.org/1999/xlink" width="200" height="200"><path d="M512 204.8a34.133333 34.133333 0 0 1 34.133333 34.133333v221.866667h-68.266666V238.933333a34.133333 34.133333 0 0 1 34.133333-34.133333z m0-170.666667c34.133333 42.786133 51.2 73.608533 51.2 92.450134a51.2 51.2 0 0 1-102.4 0c0-18.8416 17.066667-49.664 51.2-92.450134z" fill="#bfbfbf" p-id="6150"></path><path d="M819.2 580.266667H204.8a102.4 102.4 0 0 0-102.4 102.4v170.666666a68.266667 68.266667 0 0 0 68.266667 68.266667h682.666666a68.266667 68.266667 0 0 0 68.266667-68.266667V682.666667a102.4 102.4 0 0 0-102.4-102.4z m-614.4 68.266666h614.4a34.133333 34.133333 0 0 1 34.133333 34.133334v170.666666H170.666667V682.666667a34.133333 34.133333 0 0 1 34.133333-34.133334z" fill="#bfbfbf" p-id="6151"></path><path d="M699.733333 307.2H324.266667a102.4 102.4 0 0 0-102.4 102.4v170.666667a68.266667 68.266667 0 0 0 68.266666 68.266666h443.733334a68.266667 68.266667 0 0 0 68.266666-68.266666V409.6a102.4 102.4 0 0 0-102.4-102.4z m-375.466666 68.266667h375.466666a34.133333 34.133333 0 0 1 34.133334 34.133333v170.666667H290.133333V409.6a34.133333 34.133333 0 0 1 34.133334-34.133333z" fill="#bfbfbf" p-id="6152"></path></svg>